<?xml version="1.0" encoding="utf-8"?>
<!-- Generator: Adobe Illustrator 24.0.1, SVG Export Plug-In . SVG Version: 6.00 Build 0)  -->
<svg version="1.1" id="Layer_1" xmlns="http://www.w3.org/2000/svg" xmlns:xlink="http://www.w3.org/1999/xlink" x="0px" y="0px"
	 viewBox="0 0 37 37" style="enable-background:new 0 0 37 37;" xml:space="preserve">
<style type="text/css">
	.st0{fill-rule:evenodd;clip-rule:evenodd;fill:#807F70;}
	.st1{fill:#FFFFFF;}
</style>
<g>
	<path class="st0" d="M18.5,37C8.3,37,0,28.7,0,18.5S8.3,0,18.5,0S37,8.3,37,18.5S28.7,37,18.5,37L18.5,37z"/>
	<path class="st1" d="M30.6,12.7c0.6-0.5,1.6-0.5,2.1,0.2c0.5,0.6,0.5,1.6-0.2,2.1L30.6,12.7z M32.6,14.9L19.5,26.3l-2-2.3
		l13.1-11.4L32.6,14.9z M19.5,26.3c-0.6,0.5-1.6,0.5-2.1-0.2c-0.5-0.6-0.5-1.6,0.2-2.1L19.5,26.3z"/>
	<path class="st1" d="M6.4,12.7c-0.6-0.5-1.6-0.5-2.1,0.2c-0.5,0.6-0.5,1.6,0.2,2.1L6.4,12.7z M4.4,14.9l13.1,11.4l2-2.3L6.4,12.7
		L4.4,14.9z M17.5,26.3c0.6,0.5,1.6,0.5,2.1-0.2c0.5-0.6,0.5-1.6-0.2-2.1L17.5,26.3z"/>
</g>
</svg>
