<?xml version="1.0" encoding="utf-8"?>
<!-- Generator: Adobe Illustrator 24.0.1, SVG Export Plug-In . SVG Version: 6.00 Build 0)  -->
<svg version="1.1" id="Layer_1" xmlns="http://www.w3.org/2000/svg" xmlns:xlink="http://www.w3.org/1999/xlink" x="0px" y="0px"
	 viewBox="0 0 37 37" style="enable-background:new 0 0 37 37;" xml:space="preserve">
<style type="text/css">
	.st0{fill-rule:evenodd;clip-rule:evenodd;fill:#203066;}
	.st1{fill:#FFFFFF;}
</style>
<g>
	<path class="st0" d="M18.5,37C28.7,37,37,28.7,37,18.5C37,8.3,28.7,0,18.5,0C8.3,0,0,8.3,0,18.5C0,28.7,8.3,37,18.5,37L18.5,37z"/>
	<path class="st1" d="M6.4,24.3c-0.6,0.5-1.6,0.5-2.1-0.1c-0.5-0.6-0.5-1.6,0.1-2.1L6.4,24.3z M4.4,22.1l13.1-11.4l2,2.3L6.4,24.3
		L4.4,22.1z M17.5,10.7c0.6-0.5,1.6-0.5,2.1,0.1c0.5,0.6,0.5,1.6-0.2,2.1L17.5,10.7z"/>
	<path class="st1" d="M32.6,22.1c0.6,0.5,0.7,1.5,0.2,2.1c-0.5,0.6-1.5,0.7-2.1,0.1L32.6,22.1z M30.6,24.3L17.5,13l2-2.3l13.1,11.4
		L30.6,24.3z M17.5,13c-0.6-0.6-0.7-1.5-0.1-2.1c0.5-0.6,1.5-0.7,2.1-0.1L17.5,13z"/>
</g>
</svg>
