<?xml version="1.0" encoding="UTF-8"?>
<!DOCTYPE svg PUBLIC "-//W3C//DTD SVG 1.1//EN" "http://www.w3.org/Graphics/SVG/1.1/DTD/svg11.dtd">
<!-- Creator: CorelDRAW X8 -->
<svg xmlns="http://www.w3.org/2000/svg" xml:space="preserve" width="28px" height="14px" version="1.1" style="shape-rendering:geometricPrecision; text-rendering:geometricPrecision; image-rendering:optimizeQuality; fill-rule:evenodd; clip-rule:evenodd"
viewBox="0 0 1 0"
 xmlns:xlink="http://www.w3.org/1999/xlink">
 <defs>
  <style type="text/css">
   <![CDATA[
    .str0 {stroke:#585570;stroke-width:0.0198465}
    .fil0 {fill:#A8CF45}
    .fil1 {fill:whitesmoke}
   ]]>
  </style>
 </defs>
<symbol id="Fm42-41-0" viewBox="27 -106 1 1">
 <path class="fil0 str0" d="M27 -106c1,0 1,0 1,0 0,1 0,1 0,1 0,0 0,0 -1,0 0,0 0,0 0,-1z"/>
</symbol>
<symbol id="Fm44-43-0" viewBox="28 -105 1 1">
 <path class="fil0 str0" d="M28 -105c1,0 1,0 1,0 0,0 0,0 0,0 0,1 0,1 0,1 -1,-1 -1,-1 -1,-1z"/>
</symbol>
<symbol id="Fm32-31-0" viewBox="28 -103 2 2">
 <path class="fil0 str0" d="M29 -103c0,-1 1,-1 1,0 1,0 1,0 0,1 0,0 -1,0 -1,0 -1,0 -1,-1 0,-1z"/>
</symbol>
<symbol id="Fm18-17-0" viewBox="25 -113 2 1">
 <path class="fil0 str0" d="M25 -112c0,-1 1,-1 1,-1 0,1 0,1 0,1 0,0 -1,0 -1,0 0,0 0,0 0,0z"/>
</symbol>
<symbol id="Fm74-73-0" viewBox="29 -113 1 1">
 <path class="fil0 str0" d="M29 -113c0,0 0,-1 1,0 0,0 0,0 0,0 0,0 -1,0 -1,0 0,0 0,0 0,0z"/>
</symbol>
<symbol id="Fm38-37-0" viewBox="25 -107 1 1">
 <path class="fil0 str0" d="M25 -107c0,0 1,0 1,0 0,0 0,1 0,1 0,0 0,0 -1,0 0,0 0,-1 0,-1z"/>
</symbol>
<symbol id="Fm22-21-0" viewBox="27 -114 2 1">
 <path class="fil0 str0" d="M27 -114c1,0 1,0 1,0 1,0 1,0 0,0 0,1 0,1 -1,1 0,-1 0,-1 0,-1z"/>
</symbol>
<symbol id="Fm56-55-0" viewBox="32 -108 1 0">
 <path class="fil0 str0" d="M32 -108c0,0 0,0 1,0 0,0 0,1 0,1 0,0 -1,0 -1,0 0,0 0,0 0,-1z"/>
</symbol>
<symbol id="Fm24-23-0" viewBox="28 -115 1 1">
 <path class="fil0 str0" d="M29 -115c0,0 0,0 1,0 0,0 0,0 0,1 -1,0 -1,0 -1,0 -1,0 -1,-1 0,-1z"/>
</symbol>
<symbol id="Fm70-69-0" viewBox="27 -112 1 1">
 <path class="fil0 str0" d="M27 -112c0,0 1,0 1,0 0,0 0,0 0,0 0,0 -1,0 -1,0 0,0 0,0 0,0z"/>
</symbol>
<symbol id="Fm26-25-0" viewBox="22 -107 2 1">
 <path class="fil0 str0" d="M22 -107c0,0 1,0 1,0 1,0 1,1 1,1 -1,0 -2,0 -2,0 0,0 -1,-1 0,-1z"/>
</symbol>
<symbol id="Fm20-19-0" viewBox="26 -113 2 1">
 <path class="fil0 str0" d="M26 -113c0,0 1,0 1,0 0,0 0,0 0,0 0,0 -1,0 -1,0 0,0 0,0 0,0z"/>
</symbol>
<symbol id="Fm68-67-0" viewBox="26 -112 1 1">
 <path class="fil0 str0" d="M26 -111c0,-1 1,-1 1,0 0,0 0,0 0,0 0,0 -1,0 -1,0 0,0 0,0 0,0z"/>
</symbol>
<symbol id="Fm58-57-0" viewBox="32 -108 1 0">
 <path class="fil0 str0" d="M32 -108c0,0 0,0 0,0 0,0 0,0 0,0 0,0 0,1 0,0 0,0 0,0 0,0z"/>
</symbol>
<symbol id="Fm34-33-0" viewBox="23 -108 1 1">
 <path class="fil0 str0" d="M23 -108c0,0 1,0 1,0 0,0 0,0 0,1 0,0 -1,0 -1,0 0,0 0,-1 0,-1z"/>
</symbol>
<symbol id="Fm80-79-0" viewBox="20 -111 4 2">
 <path class="fil0 str0" d="M20 -110c1,-1 2,-1 3,0 1,0 1,1 0,1 -1,1 -2,1 -3,0 0,0 -1,-1 0,-1z"/>
</symbol>
<symbol id="Fm60-59-0" viewBox="31 -108 1 0">
 <path class="fil0 str0" d="M31 -108c0,0 0,0 0,0 1,0 1,0 1,0 -1,0 -1,0 -1,0 0,0 0,0 0,0z"/>
</symbol>
<symbol id="Fm52-51-0" viewBox="30 -111 2 1">
 <path class="fil0 str0" d="M31 -111c0,0 1,0 1,0 0,0 1,1 0,1 0,0 -1,1 -1,0 -1,0 -1,0 0,-1z"/>
</symbol>
<symbol id="Fm46-45-0" viewBox="29 -105 1 1">
 <path class="fil0 str0" d="M29 -104c1,-1 1,-1 1,0 0,0 1,0 0,0 0,0 0,0 0,0 -1,0 -1,0 -1,0z"/>
</symbol>
<symbol id="Fm16-15-0" viewBox="23 -112 2 1">
 <path class="fil0 str0" d="M24 -112c0,0 0,0 1,0 0,0 0,1 0,1 -1,0 -1,0 -1,0 -1,0 -1,-1 0,-1z"/>
</symbol>
<symbol id="Fm78-77-0" viewBox="20 -109 3 2">
 <path class="fil0 str0" d="M20 -109c0,0 1,0 2,0 0,0 1,1 0,1 0,1 -1,1 -2,0 0,0 -1,-1 0,-1z"/>
</symbol>
<symbol id="Fm40-39-0" viewBox="26 -106 1 1">
 <path class="fil0 str0" d="M26 -106c0,0 1,0 1,0 0,0 0,0 0,0 0,0 0,1 -1,0 0,0 0,0 0,0z"/>
</symbol>
<symbol id="Fm48-47-0" viewBox="30 -104 1 1">
 <path class="fil0 str0" d="M31 -104c0,0 0,0 0,0 1,0 1,0 0,1 0,0 0,0 0,0 -1,0 -1,-1 0,-1z"/>
</symbol>
<symbol id="Fm30-29-0" viewBox="26 -105 2 2">
 <path class="fil0 str0" d="M26 -104c1,-1 1,-1 2,-1 0,1 0,1 0,1 0,1 -1,1 -2,1 0,-1 0,-1 0,-1z"/>
</symbol>
<symbol id="Fm76-75-0" viewBox="21 -109 3 2">
 <path class="fil0 str0" d="M22 -109c0,0 1,0 2,0 0,1 0,1 0,1 -1,1 -1,1 -2,1 -1,-1 -1,-1 0,-2z"/>
</symbol>
<symbol id="Fm72-71-0" viewBox="28 -113 1 1">
 <path class="fil0 str0" d="M28 -113c0,0 1,0 1,0 0,0 0,0 0,1 0,0 -1,0 -1,0 0,0 0,-1 0,-1z"/>
</symbol>
<symbol id="Fm54-53-0" viewBox="36 -110 0 0">
 <path class="fil0 str0" d="M36 -110c0,0 1,0 1,0 0,0 0,0 0,0 0,0 0,1 -1,0 0,0 0,0 0,0z"/>
</symbol>
<symbol id="Fm50-49-0" viewBox="33 -112 1 1">
 <path class="fil0 str0" d="M34 -112c0,0 0,0 0,0 0,0 0,1 0,1 0,0 0,0 0,0 -1,0 -1,0 0,-1z"/>
</symbol>
<symbol id="Fm36-35-0" viewBox="24 -107 1 1">
 <path class="fil0 str0" d="M24 -107c0,0 1,0 1,0 0,0 0,0 0,0 0,0 -1,0 -1,0 0,0 0,0 0,0z"/>
</symbol>
<symbol id="Fm62-61-0" viewBox="32 -111 0 0">
 <path class="fil0 str0" d="M32 -110c0,-1 0,-1 0,-1 0,1 0,1 0,1 0,0 0,0 0,0 0,0 -1,0 0,0z"/>
</symbol>
<symbol id="Fm66-65-0" viewBox="25 -111 1 1">
 <path class="fil0 str0" d="M25 -111c1,0 1,0 1,0 0,0 0,0 0,1 0,0 0,0 -1,0 0,-1 0,-1 0,-1z"/>
</symbol>
<symbol id="Fm64-63-0" viewBox="24 -111 3 2">
 <path class="fil0 str0" d="M24 -110c1,-1 2,-1 2,0 1,0 1,0 0,1 0,0 -1,0 -2,0 0,-1 0,-1 0,-1z"/>
</symbol>
<symbol id="Fm28-27-0" viewBox="24 -106 2 1">
 <path class="fil0 str0" d="M24 -106c0,0 1,0 2,0 0,0 0,1 0,1 -1,1 -1,1 -2,0 0,0 0,0 0,-1z"/>
</symbol>
 <g id="Layer_x0020_1">
  <metadata id="CorelCorpID_0Corel-Layer"/>
  <g id="_2252844990656">
   <polygon class="fil1" points="0,0 1,0 1,0 0,0 0,0 0,0 "/>
  </g>
 </g>
</svg>
