<?xml version="1.0" encoding="utf-8"?>
<!-- Generator: Adobe Illustrator 24.0.1, SVG Export Plug-In . SVG Version: 6.00 Build 0)  -->
<svg version="1.1" id="Layer_1" xmlns="http://www.w3.org/2000/svg" xmlns:xlink="http://www.w3.org/1999/xlink" x="0px" y="0px"
	 viewBox="0 0 122 99" style="enable-background:new 0 0 122 99;" xml:space="preserve">
<style type="text/css">
	.st0{fill-rule:evenodd;clip-rule:evenodd;fill:#ebeadd;}
	.st1{fill:#ebeadd;}
</style>
<g>
	<path class="st0" d="M82.1,71.9c-0.5,4.8-9.5,8.7-20.5,8.7c-11.3,0-20.6-4.1-20.6-9.1c0-0.5,0.1-0.9,0.2-1.3
		c-0.1,0.2-0.1,0.5-0.1,0.8c0,4.5,9.2,8.1,20.6,8.1C72.2,78.9,80.8,75.8,82.1,71.9L82.1,71.9z M43.4,67.1c0.3-0.3,0.7-0.5,1-0.8l0,0
		C44.1,66.6,43.8,66.9,43.4,67.1L43.4,67.1z"/>
	
	<path class="st0" d="M66.4,60.2c-0.6,0.3-1.5,0.8-2.1,1c0-1.2,1.7-2.1,2-3.4c-1,1-1.9,1.6-3.5,2.1c-0.6,0.2-0.3-0.6,0.4-0.8
		c1.7-1.4,2-3.6,2.5-5.5c0,0,0-0.1,0-0.1c-0.7,1.2-3.5,4-6.6,4.1c1-1,3-1.4,3.3-3.1c-0.2,0.5-2.6,1.9-3.9,2c1.4-0.7,2-1.8,2.6-3.2
		C60,54.5,58.6,55.7,57,57c-0.1,0-0.1,0.2-0.3,0.2c0.8-1.4,2.3-2.6,2.7-4.2c-2,2.7-4.2,3.4-5.5,6.9l1.5-1.6
		c-0.3,1.6-2.6,2.9-2.8,4.9c1.7,0.3,3.3,1.8,5.2,1.4c-0.1,0.4-0.6,0.6-0.8,0.9c2.9-0.4,5.9-1,7.9-3c-0.2,0-0.9,0-0.7-0.4
		C65,61.6,65.9,61,66.4,60.2L66.4,60.2z M66.4,61.6c-1.1,0.8-0.9,1.6-2.2,2c0.5,0.1,1,0.1,1.5,0.3c0-0.3-0.4-0.4-0.4-0.6
		c0.1-0.5,0.7,0.2,1.1,0.1l-0.5-0.6C65.9,62.4,66.3,61.8,66.4,61.6L66.4,61.6z M63.8,63.9l-1.3,0.7c-0.3,0.2-0.9,0.3-0.8,0.8
		c0.1-0.1,0.3-0.3,0.5-0.2c0.7,0.4,2.9,1.7,3.5-0.3c-0.4,0.1-0.7,0.3-1.1,0.2C64.3,64.7,64,64.3,63.8,63.9L63.8,63.9z M61.3,64.9
		c-1,0.5-2.2,0.6-3.1,0.8c1,0.5,1.2,0,1.7-0.1C60.6,66.1,60.8,65.7,61.3,64.9L61.3,64.9z M53.2,65c0.1,0.3,1.1,0.7,2.2,0.6
		c-1,1.3-2.6,1-3.7,1.9c0-0.5,0-1.6,0.3-1.8C52.3,65.5,53.1,64.7,53.2,65L53.2,65z M52.1,64.8c-0.5-0.1-0.3,0.6-0.3,0.8
		c0.1-0.3,0.3-0.5,0.6-0.6L52.1,64.8z M52.7,63.5c-0.5,0.1-0.6,0.4-0.6,0.9c0.4,0.2,0.8,0.2,1.3,0.3c0.9,0.6,2.5,0.9,3.4,0.1
		C55.3,65.2,54,63.8,52.7,63.5L52.7,63.5z M63.1,60.8c0,0.9-0.9,1.7-1.5,2.4c0-0.4,0.4-1.5-0.3-1.5c-0.3,1.6-1.9,2.1-3,2.8
		c1,0,1.9-0.4,2.6-1c0.1-0.2,0.3-0.3,0.2,0c-0.1,0.2,0,0.3,0,0.5C61.8,64.9,63.9,61.3,63.1,60.8L63.1,60.8z M57.3,63.4
		c0.6-0.6,0.2-1.5,0.5-2.1c0.5-0.4,0.2-1.9,0.1-1.3c-0.4,1.8-2.8,1.6-3.3,3.4c0,0.2,0.4,0.4,1,0.6c0.1,0,0.2-0.1,0.2-0.3
		c-0.1-0.1-0.3-0.1-0.3-0.3C56.6,63.7,56.8,63.2,57.3,63.4L57.3,63.4z M53.4,64.5c0.3,0,0.4,0.2,0.7,0.3c0.3,0.1,0.3-0.3,0.1-0.5
		C53.8,64.2,53.6,64.4,53.4,64.5L53.4,64.5z M56.1,63c-0.8,0.2,0.4-1.1,0.8-1.1C56.8,61.9,56.1,63,56.1,63L56.1,63z M77,64.3
		c3.3,1.4,5.3,3.3,5.3,5.4c0,4.5-9.2,8.1-20.6,8.1s-20.6-3.6-20.6-8.1c0-2.1,2-4,5.3-5.4c1.3,3.2,7.6,5.7,15.2,5.7
		S75.6,67.5,77,64.3L77,64.3z M29.9,0l22,57.2c0.7,0.4,1.3,0.8,2,1.1c0.8-1.6,2.2-3.1,3.4-4.1c1-14.8,1.4-36.9-4.4-41.7
		C43.9,5.1,29.9,0,29.9,0L29.9,0z M77.5,35.6c-1.4,3.8-7.3,5.3-9.3,9.9c-0.7-0.8-1.6-1.5-2.5-2.1c-0.3-13.1,0.4-27.3,4.9-31
		C79.5,5.1,93.5,0,93.5,0l-22,57.2c-1.2,0.7-2.3,1.3-3.6,1.8c3.3-3.3,3.5-8.2,1.3-11.9C72.3,44,78.3,42,77.5,35.6L77.5,35.6z
		 M82.4,22.1c-2.9,6.9-16.3,7.6-15.2,20.4C68,34.5,83.3,34.2,82.4,22.1L82.4,22.1z M88.5,3.7c-3.8,10-23.1,13.4-20.7,30.6
		C68.4,23.2,90.5,20.1,88.5,3.7L88.5,3.7z M46.1,35.6c1.8,5,11.2,6,9.9,14.9C55.8,44.8,45,44.1,46.1,35.6L46.1,35.6z M41.2,22.1
		c2.9,6.9,16.3,7.6,15.2,20.4C55.6,34.5,40.3,34.2,41.2,22.1L41.2,22.1z M35.1,3.7c3.8,10,23.1,13.4,20.7,30.6
		C55.2,23.2,33.1,20.1,35.1,3.7L35.1,3.7z M66.2,59.2c6-5,3-15.8-6.1-16.2c-4.8,3.8,0.9,7.1-2.2,10.5l0.2-0.2
		c0.1-0.1,1.5-1.1,2.2-1.8c0.5,0.6-1.1,2.4-0.9,2.6c0.1,0,0.3,0,0.8-0.5c0.4-0.5,1.1-1.1,1.4-1.5c0.3,1.3-0.5,2.1-1,3
		c1-0.2,1.7-1.2,2.4-1.8c0.4,0.8-0.8,2.6-0.9,2.8c2.8-1.5,3.6-3.1,4.1-4.6c0.1,2.4-0.6,4.8-1.7,6.9c1.4-0.4,2.2-1.9,3-3
		C67.7,56.6,66.9,58.1,66.2,59.2L66.2,59.2z M72.2,58.1c2.3,1,3.7,2.3,3.7,3.8c0,1.3-1.1,2.5-2.9,3.4c0.4-0.4,0.6-0.9,0.6-1.5
		c0.7,0.1,1-1,0.7-1.6c-0.6-1.2-2-2.3-3.2-2.6C71.6,59.1,72,58.6,72.2,58.1L72.2,58.1z M71.5,65.9c-0.8,0.3-1.6,0.5-2.5,0.7
		c0.2-0.2,0.4-0.4,0.5-0.6c1.1-0.1,1.2-1.1,1.2-1.8c0-1.5-1.6-2.6-2.9-3c0.5-0.2,1.1-0.4,1.5-0.6c1.3,0.2,2.4,1.2,2.7,2.5
		C72.3,64.1,72.1,65.1,71.5,65.9L71.5,65.9z M67.7,66.9c-1.8,0.3-3.8,0.5-5.9,0.5c-2.5,0-4.8-0.2-6.8-0.7c0.4-0.1,0.7-0.3,1.1-0.5
		c1.5-0.3,3.1-0.1,4,1.1c1.2-3.3,4,0.2,5.9-1.5c0.5,0,0.8,0.4,1,0.6c1.6-2.1-1.9-1.7-2.5-2.4c0.7,0.2,3.4,0.5,1.9-0.3
		c-0.2-0.1,0.2-0.1,0.3-0.1c1,0-0.9-1-0.2-1.8c0.9,0.3,1.9,1.9,1.9,3C68.4,66,68.1,66.5,67.7,66.9L67.7,66.9z M51.5,65.7
		c-2.4-1-3.9-2.4-3.9-3.8c0-1.4,1.4-2.8,3.7-3.8c0.1,0.3,0.3,0.5,0.5,0.8c-0.1,0-0.3,0.1-0.5,0.2c-1.3,0.5-3.4,3.4-1.7,4.2
		c-0.1,0.7,0.5,1.2,1,1.6l0,0c-0.7-1.7,0.2-3.6,1.9-4.3c0.4-0.2,0.7-0.3,0.8-0.1C52.2,62,51.6,63.8,51.5,65.7L51.5,65.7z"/>
</g>
</svg>