<?xml version="1.0" encoding="utf-8"?>
<!-- Generator: Adobe Illustrator 24.0.1, SVG Export Plug-In . SVG Version: 6.00 Build 0)  -->
<svg version="1.1" id="Layer_1" xmlns="http://www.w3.org/2000/svg" xmlns:xlink="http://www.w3.org/1999/xlink" x="0px" y="0px"
	 viewBox="0 0 125 104" style="enable-background:new 0 0 125 104;" xml:space="preserve">
<style type="text/css">
	.st0{fill-rule:evenodd;clip-rule:evenodd;fill:#203066;}
</style>
<g>
	<path class="st0" d="M78,36.4c0-0.3-0.1-0.6-0.1-0.9c-4.8,0-9.6,0-14.3,0c0,0.4,0,0.7,0,1c0,4.6,0,9.3,0,13.9c0,0.7,0.2,1,0.8,1.4
		c2.1,1,3.2,3.4,2.7,5.6c-0.5,2.3-2.6,3.9-4.9,3.9c-2.4,0-4.3-1.5-4.9-3.8c-0.5-2.3,0.5-4.6,2.7-5.7c0.6-0.3,0.8-0.6,0.8-1.3
		c0-4.7,0-9.4,0-14c0-0.3,0-0.6,0-1c-4.8,0-9.5,0-14.3,0c0,0.4,0,0.7,0,1.1c0,5.5,0,11,0,16.5c0,1,0,2,0.1,3
		c0.8,8.7,9.5,15.3,18.1,13.8c8-1.4,13.4-7.8,13.5-16C78,48,78,42.2,78,36.4L78,36.4z"/>
	<path class="st0" d="M36.9,25.3c0.4,0,0.8,0,1.1,0c15.9,0,31.7,0,47.6,0c3.7,0,4-1,3.8-4.1c0,0,0,0,0-0.1c-18.2,0-36.4,0-54.6,0
		c0,0.8-0.1,1.5,0,2.2C34.9,24.5,35.7,25.3,36.9,25.3L36.9,25.3z"/>
	<path class="st0" d="M81.3,32.5c1.5,0,2.4-0.8,2.4-2.3c0-0.6,0-1.2,0-1.9c-14.4,0-28.8,0-43.2,0c0,0.5,0,0.9,0,1.3
		c0,2.2,0.7,2.9,2.9,2.9c7.2,0,14.5,0,21.7,0C70.6,32.5,76,32.5,81.3,32.5L81.3,32.5z"/>
	<path class="st0" d="M46.6,80c-6.5-0.2-12.1-4.8-13.5-11.1c-0.2-1.1-0.2-2.2-0.4-3.3c-0.1-0.9-0.7-1.4-1.5-1.4
		c-0.8,0-1.3,0.6-1.3,1.5c0,0.2,0,0.4,0,0.7c0.1,4.4,2.3,9,5.7,12.1c3.2,2.9,7,4.4,11.3,4.4c1.2,0,1.9-0.9,1.5-1.9
		C48.1,80.1,47.4,80,46.6,80L46.6,80z"/>
	<path class="st0" d="M94.5,65.5c-0.1-0.7-0.5-1.2-1.2-1.2c-0.7-0.1-1.2,0.2-1.5,0.9c-0.1,0.3-0.1,0.6-0.2,0.9
		c-0.2,6.2-4.4,11.6-10.3,13.3c-1.3,0.3-2.6,0.4-3.9,0.6c-0.9,0.1-1.5,0.7-1.5,1.5c0.1,0.8,0.6,1.3,1.6,1.3c0.8,0,1.7-0.1,2.6-0.2
		c7.9-1.1,14.3-8.3,14.5-16.2C94.5,66.1,94.5,65.8,94.5,65.5L94.5,65.5z"/>
	<path class="st0" d="M75.9,74.4c0.1,0.9,0.7,1.4,1.9,1.3c5.2-0.3,9.2-4.2,9.6-9.4c0.1-1.2-0.3-1.9-1.2-2c-0.9-0.1-1.6,0.5-1.6,1.8
		c-0.2,3.8-3.4,6.7-6.9,6.9C76.4,72.8,75.8,73.5,75.9,74.4L75.9,74.4z"/>
	<path class="st0" d="M39.8,65.4c-0.2-0.9-1.1-1.5-1.9-1.1c-0.8,0.4-1,1.1-0.9,1.8c0.2,2.5,1.1,4.6,2.7,6.4c1.9,2.1,4.3,3.1,7.1,3.2
		c0.9,0,1.5-0.5,1.6-1.3c0-0.8-0.4-1.4-1.3-1.5c-0.2,0-0.5,0-0.7-0.1c-3.1-0.3-5.5-2.4-6.3-5.4C40,66.8,40,66.1,39.8,65.4L39.8,65.4
		z"/>
	<path class="st0" d="M60.1,56.3c0,1.2,0.9,2.1,2.1,2.1c1.2,0,2.1-0.8,2.2-2c0-1.2-0.9-2.2-2.1-2.2C61,54.1,60.1,55.1,60.1,56.3
		L60.1,56.3z"/>
</g>
</svg>
