<?xml version="1.0" encoding="utf-8"?>
<!-- Generator: Adobe Illustrator 24.0.1, SVG Export Plug-In . SVG Version: 6.00 Build 0)  -->
<svg version="1.1" id="Layer_1" xmlns="http://www.w3.org/2000/svg" xmlns:xlink="http://www.w3.org/1999/xlink" x="0px" y="0px"
	 viewBox="0 0 125 104" style="enable-background:new 0 0 125 104;" xml:space="preserve">
<style type="text/css">
	.st0{fill-rule:evenodd;clip-rule:evenodd;fill:#203066;}
</style>
<g>
	<path class="st0" d="M91.9,67.3c-0.8-0.9-2.1-0.7-3.1-0.1c-1.1,0.6-2.2,1.4-3.4,2.1c-2.6-4.4-5.5-8.5-7.5-13
		c-1.9-4-4.6-5.3-8.8-4.9c-3.7,0.4-7.6,0.1-11.5,0.1c-0.1-1.2-0.2-2.3-0.2-3.6c1.1,0,2,0,2.9,0c2.6,0,5.2,0.2,7.8,0.1
		c2.1,0,3.4-1.2,3.3-2.9c-0.1-1.6-1.3-2.7-3.3-2.7c-2.2-0.1-4.3,0-6.5,0c-1.5,0-3,0-4.4,0c-0.1-2.2-0.3-4.3-0.5-6.4
		c-0.2-2.1-0.9-3.9-3-5c-4.5-2.4-9,1.3-8.8,5.1c0.3,5.4,0.5,10.8,0.8,16.2c0.4,6.7,2.3,8.6,9.1,8.5c5.3,0,10.6-0.1,15.9-0.2
		c0.9,0,1.5,0.2,2,1.1c1.8,3.2,3.7,6.4,5.7,9.6c1.2,2,2.5,4,3.7,6.2c3.3-2,6.4-3.8,9.5-5.8c0.6-0.4,1.3-1.2,1.3-1.8
		C93,69.1,92.6,68,91.9,67.3L91.9,67.3z"/>
	<path class="st0" d="M72.5,66.7c-0.3,0.9-0.4,1.5-0.5,2.1c-2.1,7.6-9.4,13.3-17.2,13.5c-7.5,0.2-14.6-4.5-17.4-11.5
		c-2.9-7.2-1.1-15,4.7-20.4c0.4-0.4,0.9-1.1,0.9-1.7c0.1-1.4-0.1-2.9-0.3-4.5c-0.5,0.3-0.9,0.4-1.2,0.6c-0.6,0.4-1.3,0.9-1.9,1.4
		c-6.6,5.9-9.3,13.2-7.7,22c1.8,9.9,9.9,17.4,19.7,18.5c10.1,1.1,20-4.4,23.9-13.4c0.2-0.4,0.3-1,0.2-1.3
		C74.7,70.3,73.7,68.7,72.5,66.7L72.5,66.7z"/>
	<path class="st0" d="M50.5,29.1c3.5,0,6.1-2.6,6.1-6c0-3.4-2.8-6-6.3-6c-3.4,0.1-6.1,2.7-6.1,6C44.3,26.7,46.9,29.1,50.5,29.1
		L50.5,29.1z"/>
</g>
</svg>
