<?xml version="1.0" encoding="utf-8"?>
<!-- Generator: Adobe Illustrator 24.0.1, SVG Export Plug-In . SVG Version: 6.00 Build 0)  -->
<svg version="1.1" id="Layer_1" xmlns="http://www.w3.org/2000/svg" xmlns:xlink="http://www.w3.org/1999/xlink" x="0px" y="0px"
	 viewBox="0 0 125 104" style="enable-background:new 0 0 125 104;" xml:space="preserve">
<style type="text/css">
	.st0{fill-rule:evenodd;clip-rule:evenodd;fill:#203066;}
</style>
<g>
	<path class="st0" d="M78.5,15c-23.9,0-47.9,0-71.8,0c-0.6,0-0.8,0.2-0.8,0.7c0,12.1,0,24.2,0,36.3c0,12.1,0,24.2,0,36.3
		c0,0.9,0,0.9,0.9,0.9c23.9,0,47.8,0,71.7,0c0.8,0,0.8,0,0.8-0.8c0-24.1,0-48.3,0-72.5C79.3,15,79.3,15,78.5,15L78.5,15z M60.3,24.8
		c0.4-2,0.8-4,1.1-6.1c0-0.3,0.1-0.5,0.5-0.5c4.3,0,8.7,0,13.1,0c0.1,0,0.2,0.1,0.3,0.1c0,0.2-0.1,0.4-0.2,0.6
		c-1.1,2.9-2.2,5.8-3.2,8.7c-0.1,0.4-0.3,0.6-0.8,0.6c-3.6,0-7.3,0-11,0c-0.1,0-0.3,0-0.5,0C59.9,26.9,60.1,25.8,60.3,24.8
		L60.3,24.8z M59.5,31.2c3.5,0,7.1,0,10.7,0c0.1,0,0.1,0,0.3,0c-0.8,2.3-1.7,4.5-2.5,6.7c-0.3,0.9-0.6,1.8-1,2.6
		C67,40.8,66.7,41,66.5,41c-3,0-6,0-9,0c0,0-0.1-0.1-0.2-0.1c0.2-1.3,0.4-2.6,0.7-3.8c0.3-1.8,0.7-3.6,1-5.4
		C59,31.4,59.1,31.2,59.5,31.2L59.5,31.2z M41.1,40.3c0,0.5-0.1,0.7-0.7,0.7c-2.8,0-5.7,0-8.5,0c-0.4,0-0.6-0.2-0.7-0.6
		c-0.5-2.9-1.1-5.8-1.7-8.8c0-0.1,0-0.2,0-0.5c3.9,0,7.7,0,11.6,0c0,0.3,0,0.5,0,0.8C41.1,34.8,41.1,37.6,41.1,40.3L41.1,40.3z
		 M41.1,53.5c0,0.5-0.2,0.6-0.6,0.6c-2.1,0-4.1,0-6.2,0c-0.3,0-0.5,0-0.6-0.4c-0.5-3.1-1.1-6.1-1.7-9.1c0-0.1,0-0.2,0-0.3
		c0.7,0,1.4,0,2.1,0c2.1,0,4.2,0,6.4,0c0.5,0,0.7,0.2,0.7,0.6C41.1,47.8,41.1,50.6,41.1,53.5L41.1,53.5z M30.4,53.7
		c0,0.1,0,0.2,0,0.4c-0.3,0-0.6,0-1,0c-1.9,0-3.7,0-5.6,0c-0.3,0-0.5,0-0.7-0.4c-1.1-3.1-2.3-6.1-3.4-9.1c0-0.1,0-0.2,0-0.3
		c0.2,0,0.4,0,0.6,0c2.6,0,5.2,0,7.8,0c0.4,0,0.6,0,0.7,0.5C29.3,47.8,29.9,50.7,30.4,53.7L30.4,53.7z M23.8,57.4
		c12.6,0,25.2,0,37.8,0c0,8.3,0,20.1,0,28.4c-12.6,0-25.2,0-37.8,0C23.8,77.6,23.8,65.7,23.8,57.4L23.8,57.4z M44.3,31.3
		c3.9,0,7.7,0,11.6,0c-0.2,0.8-0.3,1.6-0.4,2.4c-0.4,2.3-0.9,4.6-1.3,6.9c0,0.4-0.2,0.5-0.6,0.5c-2.9,0-5.8,0-8.7,0
		c-0.3,0-0.5,0-0.5-0.4C44.3,37.5,44.3,34.5,44.3,31.3L44.3,31.3z M61.7,54.1c-2.3,0-4.5,0-6.9,0c0.3-1.5,0.5-3,0.8-4.4
		c0.3-1.6,0.6-3.2,0.9-4.9c0-0.2,0.3-0.5,0.4-0.5c2.9,0,5.7,0,8.7,0c-0.1,0.3-0.2,0.5-0.2,0.7c-1.1,2.9-2.1,5.7-3.2,8.6
		C62.1,53.8,61.9,54.1,61.7,54.1L61.7,54.1z M44.3,18.5c0-0.1,0-0.1,0-0.2c4.6,0,9.2,0,13.9,0c-0.3,1.8-0.6,3.4-0.9,5.1
		c-0.3,1.4-0.5,2.8-0.8,4.1c0,0.4-0.2,0.5-0.6,0.5c-3.7,0-7.4,0-11.2,0c-0.3,0-0.5,0-0.5-0.4C44.3,24.5,44.3,21.5,44.3,18.5
		L44.3,18.5z M44.9,44.3c2.6,0,5.2,0,7.8,0c0.2,0,0.4,0,0.6,0c-0.2,1.4-0.5,2.7-0.7,4c-0.3,1.8-0.6,3.5-1,5.3c0,0.2-0.3,0.5-0.4,0.5
		c-2.3,0-4.6,0-6.9,0c0-0.3-0.1-0.4-0.1-0.6c0-2.9,0-5.7,0-8.6C44.2,44.4,44.4,44.3,44.9,44.3L44.9,44.3z M27.8,18.2
		c4.2,0,8.4,0,12.6,0c0.5,0,0.7,0.2,0.7,0.7c-0.1,2.8-0.1,5.6,0,8.5c0,0.5-0.2,0.7-0.7,0.7c-3.7,0-7.2,0-10.9,0
		c-0.4,0-0.7,0-0.8-0.5c-0.5-3-1.1-5.9-1.6-8.9c0-0.1,0-0.2-0.1-0.4C27.4,18.2,27.6,18.2,27.8,18.2L27.8,18.2z M26.4,32
		c0.5,2.9,1.1,5.8,1.6,8.6c0,0.1,0.1,0.2,0.1,0.5c-0.5,0-1,0-1.4,0c-2.5,0-5,0-7.5,0c-0.5,0-0.7-0.1-0.9-0.6c-1-2.9-2.2-5.8-3.2-8.7
		c-0.1-0.2-0.1-0.3-0.2-0.5c0.2,0,0.5,0,0.7,0c3.4,0,6.7,0,10,0C26.1,31.2,26.3,31.4,26.4,32L26.4,32z M10.7,18.2
		c4.1,0,8.3,0,12.5,0c0.5,0,0.7,0.2,0.8,0.7c0.5,2.9,1,5.7,1.6,8.5c0,0.2,0,0.4,0,0.6c-0.2,0-0.3,0-0.5,0c-3.7,0-7.3,0-10.9,0
		c-0.4,0-0.6,0-0.8-0.5c-1.1-3-2.2-6-3.3-9c0-0.1,0-0.2-0.1-0.4C10.2,18.2,10.4,18.2,10.7,18.2L10.7,18.2z M9.2,25.8
		c0,0,0.1,0,0.1,0c0.8,2.3,1.7,4.6,2.6,6.9c2.8,7.5,5.6,15.1,8.4,22.6c0.2,0.5,0.3,1,0.3,1.5c0,8.2,0,20,0,28.2c0,0.2,0,0.5,0,0.8
		c-3.8,0-7.6,0-11.4,0C9.2,65.8,9.2,45.8,9.2,25.8L9.2,25.8z M76.1,85.8c-3.8,0-7.6,0-11.4,0c0-0.3,0-0.5,0-0.8c0-8.2,0-20,0-28.2
		c0-0.5,0.1-1,0.3-1.5c3.6-9.7,7.2-19.4,10.8-29c0-0.2,0.1-0.3,0.3-0.5C76.1,45.8,76.1,65.7,76.1,85.8L76.1,85.8z"/>
	<path class="st0" d="M101.7,40.6h-7.1l-4.3,15.6v3.5h6.7v3.6h4.6v-3.6h1.2V56h-1.2V40.6z M97.1,56h-2.7l2.7-11.5V56z"/>
	<path class="st0" d="M109.7,40.4c-2,0-3.5,0.5-4.5,1.7c-1,1.1-1.5,2.8-1.5,4.9v10.3c0,2,0.5,3.5,1.6,4.6c1,1.1,2.5,1.6,4.4,1.6
		c1.9,0,3.4-0.5,4.5-1.6c1-1.1,1.6-2.6,1.6-4.7V47.1c0-2.2-0.5-3.8-1.5-4.9C113.2,41,111.7,40.4,109.7,40.4L109.7,40.4z M110.9,57.9
		c0,0.4-0.1,0.8-0.3,1.1c-0.2,0.3-0.5,0.4-0.8,0.4c-0.3,0-0.6-0.2-0.8-0.4c-0.2-0.3-0.3-0.7-0.3-1.1V46.6c0-0.6,0-1.1,0.2-1.5
		c0.1-0.3,0.4-0.5,0.9-0.5c0.4,0,0.7,0.1,0.9,0.5c0.2,0.3,0.2,0.8,0.2,1.5L110.9,57.9L110.9,57.9z"/>
	<polygon class="st0" points="116.9,40.4 116.9,44.3 118.5,44.3 117.7,47.3 120.4,47.3 121.7,44.2 121.7,40.4 	"/>
	<polygon class="st0" points="87.7,21.9 90.4,21.9 86.1,15 81.9,21.9 84.5,21.9 84.5,82.1 81.9,82.1 86.1,89.1 90.4,82.1 87.7,82.1 
			"/>
</g>
</svg>
