<?xml version="1.0" encoding="utf-8"?>
<!-- Generator: Adobe Illustrator 24.0.1, SVG Export Plug-In . SVG Version: 6.00 Build 0)  -->
<svg version="1.1" id="Layer_1" xmlns="http://www.w3.org/2000/svg" xmlns:xlink="http://www.w3.org/1999/xlink" x="0px" y="0px"
	 viewBox="0 0 125 104" style="enable-background:new 0 0 125 104;" xml:space="preserve">
<style type="text/css">
	.st0{fill-rule:evenodd;clip-rule:evenodd;fill:#203066;}
</style>
<g>
	<path class="st0" d="M95.6,40.8c-6.7,0-13.4,0-20.1,0c-0.6,0-1.2,0-2,0c0-0.7,0-1.3,0-1.9c0-6.6,0-13.1,0.1-19.6c0-1.8-0.5-3.1-2-4
		c-15.4,0-30.8,0-46.2,0c0,15.5,0,30.8,0,46.1c0.9,1.5,2.3,2,4,2c6.6,0,13.1,0,19.6,0c0.6,0,1.2,0,1.9,0c0,0.8,0,1.4,0,2
		c0,6.7,0,13.4,0,20.1c0,2.4,0.9,3.3,3.3,3.3c13.8,0,27.7,0,41.5,0c2.3,0,3.2-1,3.2-3.2c0-13.8,0-27.7,0-41.5
		C98.9,41.7,98,40.8,95.6,40.8L95.6,40.8z M93.3,83.1c-12.2,0-24.4,0-36.7,0c-0.1-0.6-0.1-1.2-0.1-1.7c0-5.5,0-11.1,0-16.6
		c0-2,0-3.9,1.9-4.9c-1.3-1.3-2.6-2.6-3.9-3.9c-1.1,2.2-3.4,1.8-5.5,1.8c-5.9,0-11.8,0-17.8,0c0-12.4,0-24.5,0-36.8
		c12.2,0,24.4,0,36.8,0c0,0.6,0,1.2,0,1.8c0,5.4,0,10.8,0,16.3c0,2,0.3,4.1-2,5.3c1.4,1.4,2.6,2.6,4,4c1.4-2.5,3.9-1.9,6.2-1.9
		c5.1,0,10.2,0,15.3,0c0.6,0,1.2,0,1.9,0C93.3,58.7,93.3,70.9,93.3,83.1L93.3,83.1z"/>
	<path class="st0" d="M51.5,37.6c-3.3-3.5-6.3-6.6-9.4-9.9c-1.5,1.5-2.7,2.8-4.3,4.4c3.2,3.2,6.4,6.2,9.8,9.6
		c-1.6,1.4-3.2,2.9-5.1,4.5c4.9,0,9.4,0,13.9,0c0-4.6,0-9.1,0-13.5c-0.1,0-0.3-0.2-0.3-0.2C54.5,34.1,53.1,35.7,51.5,37.6L51.5,37.6
		z"/>
	<path class="st0" d="M81.7,58.2c0-0.1-0.2-0.2-0.2-0.3c-4.5,0-9,0-13.5,0c0,4.6,0,9.1,0,14.1c1.8-1.9,3.3-3.5,4.8-5.1
		c3.2,3.3,6.3,6.5,9.2,9.5c1.5-1.5,2.8-2.7,4.3-4.2c-3.1-3-6.3-6-9.6-9.1C78.5,61.2,80.1,59.7,81.7,58.2L81.7,58.2z"/>
	<path class="st0" d="M58.5,51.9c1.2,1.3,2.4,2.8,3.5,4.1c1.5-1.5,3-3,4.2-4.2c-1.3-1.4-2.6-2.7-3.9-4
		C61.1,49.3,59.6,50.8,58.5,51.9L58.5,51.9z"/>
</g>
</svg>
