<?xml version="1.0" encoding="utf-8"?>
<!-- Generator: Adobe Illustrator 24.0.1, SVG Export Plug-In . SVG Version: 6.00 Build 0)  -->
<svg version="1.1" id="Layer_1" xmlns="http://www.w3.org/2000/svg" xmlns:xlink="http://www.w3.org/1999/xlink" x="0px" y="0px"
	 viewBox="0 0 125 104" style="enable-background:new 0 0 125 104;" xml:space="preserve">
<style type="text/css">
	.st0{fill-rule:evenodd;clip-rule:evenodd;fill:#203066;}
</style>
<g>
	<path class="st0" d="M51.2,54c3.3,0,6.6,0,10,0c0-4.4,0-8.8,0-13.1c0-0.5-0.2-1.2-0.6-1.5c-6.3-6.4-12.7-12.8-19-19.1
		c-1.5-1.5-2.9-2.9-4.4-4.4c-0.2,0.2-0.3,0.3-0.5,0.4C28.9,24,21.2,31.7,13.4,39.4c-0.3,0.3-0.5,0.9-0.5,1.4c0,15.5,0,30.9,0,46.3
		c0,0.3,0,0.6,0,0.9c3.4,0,6.7,0,10.1,0c0-12.7,0-25.4,0-38.1c9.5,0,18.8,0,28.2,0C51.2,51.4,51.2,52.7,51.2,54L51.2,54z"/>
	<path class="st0" d="M27.1,80.9c1,0.3,1.5,0,1.9-1c1.4-2.9,3.8-4.4,7.1-4.4c3.2,0.1,5.6,1.6,6.9,4.5c0.4,0.8,0.8,1,1.6,1
		c4.3,0,8.7,0,13,0c0.7,0,1.1-0.2,1.4-0.9c1.3-2.9,3.7-4.5,6.9-4.6c3.2-0.1,5.7,1.4,7.1,4.3c0.5,1,1,1.4,2.2,1.1c0-8,0-16,0-24
		c-16.1,0-32.1,0-48.1,0C27.1,64.9,27.1,72.9,27.1,80.9L27.1,80.9z"/>
	<path class="st0" d="M109,68.9c-3.2,0-6.4,0-9.7,0c-0.8-4.1-1.6-8-2.4-12c-5.7,0-11.2,0-16.8,0c0,8,0,16,0,24.1c2.1,0,4.2,0,6.3,0
		c0.3,0,0.6-0.4,0.8-0.6c0.7-1.6,1.9-3,3.5-3.8c4-2.3,9.1-0.5,11,3.7c0.2,0.3,0.5,0.7,0.7,0.7c3,0,6,0,9.1,0
		C110.6,76.9,109.8,72.9,109,68.9L109,68.9z"/>
	<path class="st0" d="M94.4,78.3c-2.8,0-4.9,2.2-4.9,4.9c0,2.8,2.2,5,4.9,5c2.7,0,4.9-2.2,4.9-4.9C99.4,80.5,97.2,78.3,94.4,78.3
		L94.4,78.3z"/>
	<path class="st0" d="M66,78.3c-2.7,0-4.9,2.2-4.9,4.9c0,2.8,2.2,4.9,5,4.9c2.7,0,4.9-2.3,4.9-5C71,80.5,68.8,78.3,66,78.3L66,78.3z
		"/>
	<path class="st0" d="M36,78.3c-2.8,0-5,2.2-5,5c0,2.7,2.2,4.9,4.9,4.9c2.8,0,5-2.2,5-5C40.9,80.5,38.7,78.3,36,78.3L36,78.3z"/>
	<path class="st0" d="M51.2,83.9c0,1.4,0,2.9,0,4.3c3,0,5.8,0,8.6,0c-0.5-1.4-1.1-2.8-1.7-4.3C55.9,83.9,53.5,83.9,51.2,83.9
		L51.2,83.9z"/>
</g>
</svg>
