<?xml version="1.0" encoding="utf-8"?>
<!-- Generator: Adobe Illustrator 24.0.1, SVG Export Plug-In . SVG Version: 6.00 Build 0)  -->
<svg version="1.1" id="Layer_1" xmlns="http://www.w3.org/2000/svg" xmlns:xlink="http://www.w3.org/1999/xlink" x="0px" y="0px"
	 viewBox="0 0 125 104" style="enable-background:new 0 0 125 104;" xml:space="preserve">
<style type="text/css">
	.st0{fill-rule:evenodd;clip-rule:evenodd;fill:#203066;}
</style>
<g>
	<path class="st0" d="M48.6,31.3c-0.6-0.1-1.2-0.1-1.8-0.1c-4.4,0-8.9-0.1-13.3,0c-1.4,0-2.8,0.1-4.1,0.4c-3,0.7-4.5,2.6-4.5,5.8
		c0,5.6,0,11.2,0,16.7c0,0.3,0,0.6,0,0.9c1.5,0,3,0,4.5,0c0-5.4,0-10.7,0-16.1c0.6,0,1.1,0,1.7,0c0,15.5,0,30.9,0,46.4
		c2.4,0,4.7,0,7,0c0-10.3,0-20.4,0-30.6c0.5,0,1,0,1.6,0c0,10.2,0,20.4,0,30.6c2.3,0,4.6,0,7,0c0-15.6,0-31.2,0-46.7
		c0.8,0,1.4,0,2.2,0c0,5.5,0,10.9,0,16.3c1.5,0,3,0,4.4,0c0-6.2,0.1-12.4,0-18.6C53.1,33.5,51.3,31.7,48.6,31.3L48.6,31.3z"/>
	<path class="st0" d="M99.5,53.6c-1.2-4.9-2.3-9.9-3.6-14.7c-0.5-1.9-1.3-3.7-2.2-5.4c-0.8-1.5-2.2-2.3-4.1-2.2
		c-4.4,0.1-8.8,0.1-13.1,0c-1.5,0-2.7,0.5-3.4,1.7c-0.8,1.2-1.6,2.6-2,4c-1.5,5.6-2.8,11.2-4.2,16.8c0,0.2,0,0.2,0,0.4
		c1,0.2,1.9,0.3,2.9,0.4c0.1-0.3,0.2-0.5,0.2-0.8c0.9-3.2,1.9-6.3,2.8-9.5c0.6-2.1,1.2-4.2,1.9-6.3c0.1-0.4,0.8-0.6,1.3-0.9
		c0.1,0.4,0.3,0.8,0.2,1.2c-0.9,4.9-1.8,9.8-2.7,14.7c-0.5,2.6-0.9,5.2-1.4,7.9c1.5,0,2.9,0,4.4,0c0,8,0,16,0,23.9c2,0,4,0,6,0
		c0-8,0-15.9,0-23.8c0.5,0,0.8,0,1.3,0c0,8,0,15.9,0,23.9c2,0,3.9,0,6,0c0-8,0-15.9,0-23.9c1.5,0,3,0,4.5,0c0-0.2,0-0.4,0-0.6
		c-1.3-7.4-2.7-14.7-4-22.1c-0.1-0.3,0.1-0.7,0.1-1c0.3,0.1,0.7,0.2,1,0.3c0.2,0.1,0.4,0.5,0.4,0.8c0.9,2.9,1.8,5.9,2.6,8.8
		c0.7,2.5,1.5,5,2.2,7.5c1-0.2,1.9-0.3,2.9-0.4C99.5,54,99.5,53.8,99.5,53.6L99.5,53.6z"/>
	<path class="st0" d="M59.4,87.4c0.9,0,1.7,0,2.6,0c0-23.6,0-47.1,0-70.7c-0.9,0-1.7,0-2.6,0C59.4,40.3,59.4,63.8,59.4,87.4
		L59.4,87.4z"/>
	<path class="st0" d="M83.4,29.5c3.4,0,6.1-2.8,6.1-6.1c0-3.4-2.8-6.1-6.1-6.1c-3.4,0-6.1,2.8-6.1,6.1
		C77.3,26.8,80.1,29.6,83.4,29.5L83.4,29.5z"/>
	<path class="st0" d="M38.9,29c3.3,0.1,6.1-2.6,6.2-6c0.1-3.3-2.6-6.1-6-6.2c-3.3-0.1-6.1,2.6-6.2,6C32.8,26.1,35.5,28.9,38.9,29
		L38.9,29z"/>
</g>
</svg>
