<?xml version="1.0" encoding="utf-8"?>
<!-- Generator: Adobe Illustrator 24.0.1, SVG Export Plug-In . SVG Version: 6.00 Build 0)  -->
<svg version="1.1" id="Layer_1" xmlns="http://www.w3.org/2000/svg" xmlns:xlink="http://www.w3.org/1999/xlink" x="0px" y="0px"
	 viewBox="0 0 125 104" style="enable-background:new 0 0 125 104;" xml:space="preserve">
<style type="text/css">
	.st0{fill-rule:evenodd;clip-rule:evenodd;fill:#203066;}
</style>
<g>
	<path class="st0" d="M10.2,53.8c7.2,0,14.4,0,21.6,0s14.4,0,21.6,0c0.8,0,1.3-0.2,1.7-1c0.3-0.8,0.4-1.5-0.2-2.3
		c-5.8-7-11.5-14-17.3-21.1c-0.3-0.3-0.8-0.6-1.3-0.6c-3-0.1-6,0-9-0.1c-0.7,0-1.1,0.2-1.6,0.7c-3.1,3.8-6.2,7.6-9.3,11.4
		c-2.6,3.2-5.2,6.4-7.8,9.5c-0.6,0.7-0.6,1.4-0.2,2.3C8.8,53.6,9.3,53.8,10.2,53.8L10.2,53.8z"/>
	<path class="st0" d="M27.2,28.4c3,0,6.1,0,9.2,0c0.3,0,0.5,0,0.7,0c0.3-2.6-1.1-4.9-3.6-5.7c-0.9-0.2-0.9-0.6-0.9-1.4
		c0-6.7,0-13.3,0-20c0-0.4,0-0.7,0-1.1c-0.6,0-1.1,0-1.6,0c0,0.6,0,1.2,0,1.7c0,6.6,0,13.1,0,19.6c0,0.6,0,0.9-0.7,1.1
		c-2.3,0.6-3.7,2.5-3.9,4.8C26.2,28.1,26.4,28.4,27.2,28.4L27.2,28.4z"/>
	<path class="st0" d="M31.7,64.6c-0.9,0-1.4,0.5-1.4,1.7c0,2.7,0,5.4,0,8.1c0,2.7,0,5.4,0,8.1c0,1.3,0.4,1.8,1.4,1.8
		c1,0,1.4-0.5,1.4-1.7c0-5.4,0-10.8,0-16.2C33.2,65.1,32.7,64.6,31.7,64.6L31.7,64.6z"/>
	<path class="st0" d="M54.5,74c-3.8-3.7-7.7-7.4-11.6-11.1c-0.2-0.2-0.5-0.6-0.8-0.6c-0.4,0-1.1,0-1.4,0.3c-0.2,0.3-0.2,0.9-0.2,1.4
		c0.1,0.2,0.3,0.4,0.5,0.6c3.9,3.7,7.7,7.4,11.6,11.1c0.2,0.2,0.4,0.4,0.7,0.5c0.8,0.4,1.8-0.1,1.8-1.3C55.1,74.7,54.9,74.3,54.5,74
		L54.5,74z"/>
	<path class="st0" d="M21.3,62.3c-0.2,0-0.5,0.3-0.7,0.6c-3.8,3.6-7.6,7.3-11.4,10.9c-0.2,0.2-0.5,0.5-0.7,0.8
		c-0.5,0.8,0,1.8,1.2,1.8c0.2-0.1,0.6-0.4,1-0.7c3.9-3.7,7.8-7.4,11.7-11.1c0.2-0.2,0.5-0.4,0.5-0.6c0-0.4,0.1-1.1-0.1-1.4
		C22.4,62.3,21.7,62.3,21.3,62.3L21.3,62.3z"/>
	<path class="st0" d="M28.7,59.1c1.9,1.2,3.9,1.2,5.8,0.1c1.7-1,2.5-2.5,2.6-4.5c-3.6,0-7.1,0-10.7,0C26.4,56.7,27.2,58.1,28.7,59.1
		L28.7,59.1z"/>
	<path class="st0" d="M71.1,53.8c7.2,0,14.4,0,21.6,0c7.2,0,14.4,0,21.6,0c0.8,0,1.3-0.2,1.7-1c0.3-0.8,0.4-1.5-0.2-2.3
		c-5.7-7-11.4-14.1-17.2-21.1c-0.3-0.3-0.8-0.6-1.3-0.6c-3-0.1-6,0-9-0.1c-0.7,0-1.1,0.2-1.6,0.7c-3.1,3.8-6.2,7.6-9.3,11.4
		c-2.6,3.2-5.2,6.4-7.8,9.5c-0.6,0.7-0.6,1.4-0.2,2.3C69.7,53.6,70.3,53.8,71.1,53.8L71.1,53.8z"/>
	<path class="st0" d="M88,28.4c3,0,6.1,0,9.2,0c0.2,0,0.5,0,0.7,0c0.3-2.6-1.1-4.9-3.6-5.7c-0.9-0.2-0.9-0.6-0.9-1.4
		c0-6.7,0-13.3,0-20c0-0.4,0-0.7,0-1.1c-0.6,0-1.1,0-1.6,0c0,0.6,0,1.2,0,1.7c0,6.6,0,13.1,0,19.6c0,0.6,0,0.9-0.7,1.1
		c-2.3,0.6-3.7,2.5-3.9,4.8C87.1,28.1,87.3,28.4,88,28.4L88,28.4z"/>
	<path class="st0" d="M92.6,64.6c-0.9,0-1.4,0.5-1.4,1.7c0,2.7,0,5.4,0,8.1c0,2.7,0,5.4,0,8.1c0,1.3,0.4,1.8,1.4,1.8
		c1,0,1.4-0.5,1.4-1.7c0-5.4,0-10.8,0-16.2C94.1,65.1,93.6,64.6,92.6,64.6L92.6,64.6z"/>
	<path class="st0" d="M115.4,74c-3.8-3.7-7.7-7.4-11.6-11.1c-0.2-0.2-0.5-0.6-0.8-0.6c-0.4,0-1.1,0-1.4,0.3
		c-0.2,0.3-0.2,0.9-0.2,1.4c0,0.2,0.3,0.4,0.5,0.6c3.9,3.7,7.7,7.4,11.6,11.1c0.2,0.2,0.4,0.4,0.7,0.5c0.8,0.4,1.8-0.1,1.8-1.3
		C116,74.7,115.8,74.3,115.4,74L115.4,74z"/>
	<path class="st0" d="M82.1,62.3c-0.2,0-0.5,0.3-0.7,0.6c-3.8,3.6-7.6,7.3-11.4,10.9c-0.3,0.2-0.5,0.5-0.7,0.8
		c-0.5,0.8,0.1,1.8,1.2,1.8c0.2-0.1,0.6-0.4,1-0.7c3.9-3.7,7.8-7.4,11.7-11.1c0.2-0.2,0.5-0.4,0.5-0.6c0.1-0.4,0.2-1.1-0.1-1.4
		C83.3,62.3,82.6,62.3,82.1,62.3L82.1,62.3z"/>
	<path class="st0" d="M89.7,59.1c1.9,1.2,3.9,1.2,5.8,0.1c1.7-1,2.5-2.5,2.6-4.5c-3.6,0-7.1,0-10.7,0C87.3,56.7,88.1,58.1,89.7,59.1
		L89.7,59.1z"/>
</g>
</svg>
