<?xml version="1.0" encoding="utf-8"?>
<!-- Generator: Adobe Illustrator 24.0.1, SVG Export Plug-In . SVG Version: 6.00 Build 0)  -->
<svg version="1.1" id="Layer_1" xmlns="http://www.w3.org/2000/svg" xmlns:xlink="http://www.w3.org/1999/xlink" x="0px" y="0px"
	 viewBox="0 0 125 104" style="enable-background:new 0 0 125 104;" xml:space="preserve">
<style type="text/css">
	.st0{fill-rule:evenodd;clip-rule:evenodd;fill:#203066;}
</style>
<g>
	<path class="st0" d="M88.9,51C70,51,51,51,32.1,51c-0.3,0-0.6,0-1,0c0.1-0.2,0.2-0.3,0.2-0.4c3.9-6.8,7.8-13.6,11.8-20.3
		c0.2-0.4,0.7-0.7,1.2-0.9c0.5-0.2,1.1-0.2,1.6-0.2c4.1,0,8.3,0,12.4,0c0.6,0,1.2-0.1,1.8-0.3c0.8-0.3,1.1-1,0.9-1.8
		c-0.2-1.1-0.9-1.5-2.3-1.5c-5.3,0-10.6,0-15.9,0c-0.8,0-1.3,0.3-1.7,0.9c-0.2,0.3-0.4,0.6-0.6,1c-4.4,7.7-8.9,15.4-13.3,23.1
		c-0.2,0.2-0.3,0.6-0.5,0.6c-2.2,0.7-2.9,2.4-2.9,4.5c0,5.1,0,10.2,0,15.4c0,1.2,0,2.4,0,3.6c0.1,2.2,1.7,3.7,3.9,3.7
		c1.1,0,2.2,0,3.4,0c0,0.3,0,0.6,0,0.9c0,2.7,0,5.4,0,8.1c0,1.4,0.7,2.1,2.1,2.1c1.6,0,3.2,0,4.7,0c1.6,0,2.3-0.6,2.3-2.3
		c0-2.3,0-4.6,0-6.9c0-0.6,0-1.2,0-1.9c12.3,0,24.4,0,36.6,0c0,1.3,0,2.5,0,3.7c0,1.9,0,3.7,0,5.6c0,1.3,0.7,1.9,2,1.9
		c1.7,0,3.4,0,5.1,0c1,0,1.6-0.4,1.8-1.4c0-0.3,0.1-0.6,0.1-1c0-2.7,0-5.3,0-8c0-0.2,0-0.5,0-0.8c1.1,0,2,0,3,0
		c2.8,0,4.3-1.5,4.3-4.2c0-6.2,0-12.5,0-18.8C93.2,52.5,91.6,51,88.9,51L88.9,51z M37.5,70.9c-3.5,0-6.3-2.9-6.3-6.4
		c0-3.5,2.8-6.3,6.3-6.3c3.5,0,6.3,2.9,6.3,6.3C43.8,68.1,40.9,71,37.5,70.9L37.5,70.9z M79.7,70.9c-3.5,0-6.3-2.8-6.3-6.3
		c0-3.5,2.9-6.3,6.3-6.3c3.5,0,6.3,2.9,6.3,6.4C86,68.2,83.2,70.9,79.7,70.9L79.7,70.9z"/>
	<path class="st0" d="M100.5,18.1c0-1.4-0.6-2.4-1.9-3c-0.7-0.3-1.5-0.5-2.2-0.5c-8.8,0-17.6,0-26.4,0c-0.2,0-0.5,0-0.7,0
		c-2.1,0.2-3.4,1.7-3.4,3.7c0,8.4,0,16.8,0,25.2c0,0.3,0,0.6,0.1,1c0.4,1.7,1.9,2.8,3.8,2.8c4.5,0,9,0,13.5,0c4.5,0,9,0,13.5,0
		c2.2,0,3.9-1.5,3.9-3.5C100.6,35.2,100.6,26.6,100.5,18.1L100.5,18.1z M86.5,33.2c-1.7,0.7-3.4,0.7-5.4,0.6c0,2.2,0,4.3,0,6.5
		c-1.4,0-2.7,0-4.1,0c0-6,0-12,0-18c2.9-0.3,5.8-0.6,8.6,0c2.7,0.5,4.3,2.4,4.5,4.9C90.4,29.9,89,32.1,86.5,33.2L86.5,33.2z"/>
	<path class="st0" d="M83.9,25.2c-0.7-0.1-1.5,0-2.3,0c-0.1,0-0.4,0.2-0.4,0.4c-0.1,1.7,0,3.4,0,5.3c1.2-0.2,2.2-0.2,3.2-0.5
		c1.2-0.3,1.8-1.6,1.7-2.8C85.9,26.2,85.2,25.4,83.9,25.2L83.9,25.2z"/>
</g>
</svg>
