<?xml version="1.0" encoding="utf-8"?>
<!-- Generator: Adobe Illustrator 24.0.1, SVG Export Plug-In . SVG Version: 6.00 Build 0)  -->
<svg version="1.1" id="Layer_1" xmlns="http://www.w3.org/2000/svg" xmlns:xlink="http://www.w3.org/1999/xlink" x="0px" y="0px"
	 viewBox="0 0 125 104" style="enable-background:new 0 0 125 104;" xml:space="preserve">
<style type="text/css">
	.st0{fill-rule:evenodd;clip-rule:evenodd;fill:#203066;}
</style>
<g>
	<path class="st0" d="M7.7,27V30h2.7v31.8h-2v8.9H60v-8.9h-2V30.1h2.7v-3L34.2,10.6L7.7,27z M27.9,60.4H17.4V49.9h10.5V60.4
		L27.9,60.4z M27.9,40.7H17.4V30.1h10.5V40.7L27.9,40.7z M40.4,30.1h10.5v10.5H40.4V30.1z M40.4,49.8h10.5v10.5H40.4V49.8z"/>
	<path class="st0" d="M116.7,52.7v-3.1L90.2,33.2L63.7,49.7v3.1h2.7v31.8h-2v8.9h51.7v-8.9h-2V52.7H116.7z M84,83.1H73.4V72.5H84
		V83.1z M84,63.3H73.4V52.8H84V63.3z M107,83.1H96.5V72.5H107V83.1z M107,63.3H96.5V52.8H107V63.3z"/>
</g>
</svg>
