<?xml version="1.0" encoding="utf-8"?>
<!-- Generator: Adobe Illustrator 24.0.1, SVG Export Plug-In . SVG Version: 6.00 Build 0)  -->
<svg version="1.1" id="Layer_1" xmlns="http://www.w3.org/2000/svg" xmlns:xlink="http://www.w3.org/1999/xlink" x="0px" y="0px"
	 viewBox="0 0 558 260.5" style="enable-background:new 0 0 558 260.5;" xml:space="preserve">
<style type="text/css">
	.st0{fill-rule:evenodd;clip-rule:evenodd;fill:#807F70;}
	.st1{fill:#F5F5F5;}
</style>
<g>
	<polygon class="st0" points="250.6,0 558,143.5 558,260.5 0,0 	"/>
	<g>
		<path class="st1" d="M228.2,66.7l14.1-30.4l12.1,5.7l-2.7,5.9l-6-2.8l-2.3,4.8l5.7,2.7l-2.7,5.8l-5.7-2.7l-6.4,13.8L228.2,66.7z"
			/>
	</g>
	<g>
		<path class="st1" d="M244.9,72c-0.6-2.1-0.2-4.5,1-7.2l6.7-14.5c1.2-2.6,2.8-4.3,4.7-5c1.9-0.7,4.1-0.5,6.5,0.6
			c2.4,1.1,4,2.7,4.6,4.6c0.7,1.9,0.4,4.2-0.9,6.8l-6.7,14.5c-1.3,2.7-2.9,4.5-4.9,5.4c-2,0.9-4.2,0.8-6.6-0.4
			C247,75.7,245.5,74.1,244.9,72z M253.4,71.1c0.4-0.4,0.8-1,1.2-1.8l6.9-14.8c0.3-0.7,0.5-1.2,0.5-1.7c0-0.5-0.2-0.9-0.8-1.1
			c-1-0.5-1.9,0.1-2.6,1.6l-6.9,14.8c-0.4,0.9-0.6,1.6-0.6,2.1c0,0.5,0.3,1,0.9,1.2C252.6,71.5,253,71.5,253.4,71.1z"/>
	</g>
	<g>
		<path class="st1" d="M273.6,50.8l9.3,4.4c1.5,0.7,2.5,1.6,3,2.6c0.5,1.1,0.6,2.2,0.3,3.6c-0.3,1.3-0.9,3-1.7,4.8
			c-0.8,1.7-1.7,3-2.5,3.7c-0.9,0.8-2,1.1-3.3,0.9c0.8,0.6,1.3,1.4,1.4,2.3c0.1,0.9-0.2,2-0.8,3.3l-5.4,11.5l-5.9-2.8l5.5-11.9
			c0.4-0.8,0.5-1.5,0.3-1.9c-0.2-0.4-0.8-0.8-1.6-1.2L265.6,84l-6.1-2.9L273.6,50.8z M276,65.6c0.8,0.4,1.7-0.3,2.6-2.2
			c0.4-0.8,0.6-1.4,0.7-1.9c0.1-0.4,0.1-0.8,0-1c-0.1-0.2-0.4-0.4-0.7-0.6l-1.4-0.7l-2.6,5.6L276,65.6z"/>
	</g>
	<g>
		<path class="st1" d="M284.5,93l14.1-30.4l6.1,2.8L293,90.6l6.2,2.9l-2.4,5.2L284.5,93z"/>
	</g>
	<g>
		<path class="st1" d="M298.7,99.5l14.1-30.4l12.1,5.7l-2.7,5.9l-6-2.8l-2.7,5.9l5.7,2.7l-2.7,5.7l-5.7-2.7l-3.2,7l6.4,3l-2.7,5.9
			L298.7,99.5z"/>
	</g>
	<g>
		<path class="st1" d="M312.3,105.9l17.1-29l10.3,4.8l-11.2,31.7l-5.8-2.7l1.9-5.1l-3.7-1.7l-2.6,4.7L312.3,105.9z M323.6,99.2
			l2.8,1.3l5.9-16.1l-0.3-0.1L323.6,99.2z"/>
	</g>
	<g>
		<path class="st1" d="M332.3,113c-0.6-1.9-0.2-4.4,1.2-7.5l1.4-3l6,2.8l-1.8,3.8c-0.7,1.5-0.6,2.5,0.4,2.9c0.5,0.3,1,0.3,1.4,0.1
			c0.4-0.2,0.7-0.7,1.1-1.5c0.5-1,0.7-1.9,0.8-2.6c0.1-0.8,0-1.4-0.1-2c-0.2-0.6-0.5-1.6-1-2.9l-1.4-3.8c-1.1-2.9-1.1-5.6,0-8
			c1.2-2.6,2.7-4.3,4.5-5.1c1.8-0.8,3.9-0.7,6.2,0.4c2.7,1.3,4.4,2.9,4.9,4.9c0.5,2,0.1,4.6-1.4,7.6l-6.2-2.9l0.9-2.1
			c0.2-0.4,0.2-0.8,0.1-1.1c-0.1-0.3-0.4-0.6-0.8-0.8c-0.5-0.2-0.9-0.3-1.2-0.1c-0.4,0.1-0.6,0.4-0.8,0.9c-0.5,1-0.4,2.3,0.3,3.9
			l1.9,5c0.4,1.2,0.8,2.3,1,3.2c0.2,1,0.2,2,0.1,3.2c-0.1,1.1-0.5,2.4-1.1,3.7c-1.4,3-3,5-4.8,6c-1.8,1-4,1-6.5-0.2
			C334.6,116.6,332.9,115,332.3,113z"/>
	</g>
	<g>
		<path class="st1" d="M346.5,121.9l14.1-30.4l12.1,5.7l-2.7,5.9l-6-2.8l-2.7,5.9l5.7,2.7l-2.7,5.7l-5.7-2.7l-3.2,7l6.4,3l-2.7,5.9
			L346.5,121.9z"/>
	</g>
	<g>
		<path class="st1" d="M372.4,133.4c-0.9-1.1-1.4-2.3-1.6-3.6s0.1-2.8,0.8-4.3l3.5-7.6l6,2.8l-3.4,7.2c-0.3,0.5-0.3,1-0.3,1.4
			c0.1,0.4,0.3,0.7,0.8,1c0.4,0.2,0.9,0.2,1.2,0c0.4-0.2,0.7-0.6,0.9-1.1l10.9-23.4l6.1,2.9l-10.6,22.8c-0.7,1.6-1.7,2.8-2.9,3.7
			c-1.2,0.9-2.5,1.4-3.9,1.5c-1.4,0.1-2.8-0.1-4.3-0.8C374.4,135.3,373.3,134.5,372.4,133.4z"/>
	</g>
	<g>
		<path class="st1" d="M388,139.1c-0.6-2-0.2-4.4,1.1-7.1l10.4-22.2l5.9,2.8l-10.2,22c-0.4,1-0.7,1.8-0.8,2.4
			c-0.1,0.6,0.2,1.1,0.8,1.4c0.6,0.3,1.1,0.2,1.6-0.2c0.4-0.4,0.9-1.2,1.3-2.1l10.2-22l5.9,2.8l-10.4,22.2c-1.3,2.8-2.9,4.6-4.7,5.4
			c-1.9,0.8-4.1,0.7-6.5-0.5C390.1,142.6,388.6,141.1,388,139.1z"/>
	</g>
	<g>
		<path class="st1" d="M402.5,148.2l14.1-30.4l6.2,2.9l-4,15.8l6.8-14.5l5.9,2.7l-14.1,30.4l-5.9-2.8l4-16.6l-7.1,15.2L402.5,148.2z
			"/>
	</g>
	<g>
		<path class="st1" d="M419.9,156.2l14.1-30.4l12.1,5.7l-2.7,5.9l-6-2.8l-2.7,5.9l5.7,2.7l-2.7,5.7l-5.7-2.7l-3.2,7l6.4,3l-2.7,5.9
			L419.9,156.2z"/>
	</g>
	<g>
		<path class="st1" d="M443.4,165.2c0.6-1.4,1.5-2.6,2.4-3.5c1-1,2-1.8,3.1-2.4c1.1-0.6,2.4-1.4,4.1-2.2c1.7-0.8,3-1.6,4.1-2.2
			c1.1-0.6,2.1-1.4,3.1-2.4c1-1,1.8-2.2,2.5-3.6c0.4-0.8,0.6-1.5,0.5-2.1c0-0.6-0.3-1-1-1.3c-1-0.5-1.9,0.2-2.8,2l-1.7,3.7l-6.4-3
			l0.8-1.9c1.1-2.3,2.2-4.1,3.4-5.4c1.2-1.3,2.5-2,4.1-2.2c1.5-0.2,3.3,0.1,5.4,1.1c2.5,1.2,4.2,2.8,4.9,4.9c0.7,2.1,0.5,4.4-0.7,7
			c-0.8,1.7-1.7,3.1-2.8,4.2c-1.1,1.1-2.2,2.1-3.3,2.8c-1.1,0.7-2.6,1.5-4.3,2.3c-1.3,0.6-2.3,1.1-3.2,1.6c-0.9,0.5-1.7,1.1-2.5,1.7
			l8.3,3.9l-2.7,5.7l-15.7-7.3L443.4,165.2z"/>
	</g>
	<g>
		<path class="st1" d="M462.7,173.9c-0.7-2.1-0.4-4.5,0.8-7.2l6.4-13.7c1.3-2.9,3-4.8,5.1-5.6c2-0.9,4.4-0.7,7.1,0.5
			c2.7,1.3,4.3,2.9,5,5.1c0.6,2.1,0.3,4.6-1,7.5l-6.4,13.7c-1.3,2.7-2.9,4.5-5,5.2c-2.1,0.8-4.4,0.6-7-0.6
			C465,177.6,463.4,176,462.7,173.9z M471.6,173.1c0.5-0.3,0.8-0.7,1.1-1.3l7-15c0.4-0.9,0.6-1.6,0.6-2.1c0-0.6-0.3-1-0.9-1.3
			c-0.6-0.3-1.1-0.2-1.5,0.1c-0.4,0.4-0.8,1-1.2,1.9l-7,15c-0.3,0.6-0.4,1.1-0.3,1.7c0.1,0.5,0.3,0.9,0.8,1.1
			C470.7,173.5,471.1,173.4,471.6,173.1z"/>
	</g>
	<g>
		<path class="st1" d="M478.2,181.8c0.6-1.4,1.5-2.6,2.4-3.5c1-1,2-1.8,3.1-2.4c1.1-0.6,2.4-1.4,4.1-2.2c1.7-0.8,3-1.6,4.1-2.2
			c1.1-0.6,2.1-1.4,3.1-2.4c1-1,1.8-2.2,2.5-3.6c0.4-0.8,0.6-1.5,0.5-2.1c0-0.6-0.3-1-1-1.3c-1-0.5-1.9,0.2-2.8,2l-1.7,3.7l-6.4-3
			l0.8-1.9c1.1-2.3,2.2-4.1,3.4-5.4c1.2-1.3,2.5-2,4.1-2.2c1.5-0.2,3.3,0.1,5.4,1.1c2.5,1.2,4.2,2.8,4.9,4.9c0.7,2.1,0.5,4.4-0.7,7
			c-0.8,1.7-1.7,3.1-2.8,4.2c-1.1,1.1-2.2,2.1-3.3,2.8c-1.1,0.7-2.6,1.5-4.3,2.3c-1.3,0.6-2.3,1.1-3.2,1.6c-0.9,0.5-1.7,1.1-2.5,1.7
			l8.3,3.9l-2.7,5.7l-15.7-7.3L478.2,181.8z"/>
	</g>
	<g>
		<path class="st1" d="M497.5,190.1c-0.7-2.1-0.4-4.5,0.8-7.2l6.4-13.7c1.3-2.9,3-4.8,5.1-5.6c2-0.9,4.4-0.7,7.1,0.5
			c2.7,1.3,4.3,2.9,5,5.1c0.6,2.1,0.3,4.6-1,7.5l-6.4,13.7c-1.3,2.7-2.9,4.5-5,5.2c-2.1,0.8-4.4,0.6-7-0.6
			C499.9,193.9,498.2,192.2,497.5,190.1z M506.4,189.4c0.5-0.3,0.8-0.7,1.1-1.3l7-15c0.4-0.9,0.6-1.6,0.6-2.1c0-0.6-0.3-1-0.9-1.3
			c-0.6-0.3-1.1-0.2-1.5,0.1c-0.4,0.4-0.8,1-1.2,1.9l-7,15c-0.3,0.6-0.4,1.1-0.3,1.7c0.1,0.5,0.3,0.9,0.8,1.1
			C505.5,189.7,505.9,189.6,506.4,189.4z"/>
	</g>
</g>
</svg>
