<?xml version="1.0" encoding="utf-8"?>
<!-- Generator: Adobe Illustrator 24.0.1, SVG Export Plug-In . SVG Version: 6.00 Build 0)  -->
<svg version="1.1" id="Layer_1" xmlns="http://www.w3.org/2000/svg" xmlns:xlink="http://www.w3.org/1999/xlink" x="0px" y="0px"
	 viewBox="0 0 39 60.4" style="enable-background:new 0 0 39 60.4;" xml:space="preserve">
<style type="text/css">
	.st0{fill:#203066;}
	.st1{fill:#3B5094;}
	.st2{fill:#FFFFFF;}
</style>
<g>
	<path class="st0" d="M19.5,60.4c0,0-4.6-16-13.8-27.2C2.5,29.4,0,24.9,0,19.5C0,14.1,2.2,9.2,5.7,5.7C9.2,2.2,14.1,0,19.5,0
		c5.4,0,10.3,2.2,13.8,5.7c3.5,3.5,5.7,8.4,5.7,13.8c0,5.4-2.5,9.9-5.7,13.8C24.1,44.5,19.5,60.4,19.5,60.4L19.5,60.4z"/>
	<path class="st1" d="M32.9,19.5c0,7.4-6,13.4-13.4,13.4c-7.4,0-13.4-6-13.4-13.4c0-7.4,6-13.4,13.4-13.4
		C26.9,6.1,32.9,12.1,32.9,19.5L32.9,19.5z"/>
	<path class="st2" d="M29.5,19.5c0,5.5-4.5,10-10,10s-10-4.5-10-10s4.5-10,10-10S29.5,14,29.5,19.5L29.5,19.5z"/>
</g>
</svg>
